<svg width="103" height="106" viewBox="0 0 103 106" fill="none" xmlns="http://www.w3.org/2000/svg">
<path d="M54.3709 23.5419H48.4423C47.8999 23.5419 47.4562 23.9856 47.4562 24.5279V58.4602C47.4562 58.7807 47.6041 59.0765 47.863 59.2614L68.2372 74.1384C68.6809 74.4588 69.2971 74.3726 69.6176 73.9288L73.1427 69.1219C73.4755 68.6658 73.3769 68.0495 72.9332 67.7414L55.3569 55.0337V24.5279C55.3569 23.9856 54.9132 23.5419 54.3709 23.5419ZM81.4625 32.8107L100.789 37.5314C101.405 37.6793 102.009 37.2109 102.009 36.5823L102.108 16.6765C102.108 15.8507 101.159 15.3823 100.518 15.9L81.0927 31.0728C80.9459 31.1864 80.8341 31.3391 80.7703 31.5133C80.7064 31.6876 80.693 31.8764 80.7316 32.0579C80.7702 32.2395 80.8593 32.4064 80.9886 32.5396C81.1179 32.6728 81.2822 32.7667 81.4625 32.8107ZM102.132 69.923L95.1439 67.5195C94.9002 67.436 94.6336 67.4512 94.4009 67.5617C94.1683 67.6723 93.9881 67.8695 93.899 68.1112C93.6648 68.7398 93.4183 69.3561 93.1595 69.9723C90.9655 75.1614 87.8225 79.8328 83.8044 83.8386C79.8308 87.8245 75.1217 91.0015 69.9381 93.1937C64.5682 95.4641 58.7959 96.6294 52.9658 96.6202C47.0741 96.6202 41.3674 95.474 35.9934 93.1937C30.8098 91.0015 26.1007 87.8245 22.1272 83.8386C18.1213 79.8328 14.9783 75.1614 12.772 69.9723C10.5142 64.5994 9.35741 58.828 9.37018 53C9.37018 47.1084 10.5165 41.3893 12.7967 36.0154C14.9906 30.8263 18.1337 26.1549 22.1518 22.1491C26.1253 18.1632 30.8344 14.9862 36.0181 12.794C41.3674 10.5137 47.0865 9.36745 52.9781 9.36745C58.8697 9.36745 64.5765 10.5137 69.9504 12.794C75.1341 14.9862 79.8432 18.1632 83.8167 22.1491C85.0739 23.4186 86.2571 24.7375 87.3418 26.1302L94.7125 20.3619C85.0123 7.96234 69.9134 -0.0123113 52.9534 1.42674e-05C23.4213 0.0123398 -0.293076 23.9979 0.00273766 53.5423C0.298552 82.5691 23.902 106 52.9781 106C75.842 106 95.3165 91.5051 102.736 71.2049C102.921 70.6872 102.65 70.1079 102.132 69.923Z" fill="#EFCF46"/>
</svg>
