<svg width="453" height="105" viewBox="0 0 453 105" fill="none" xmlns="http://www.w3.org/2000/svg">
<path d="M47.4572 36.2C47.1372 36.2 46.8572 36.12 46.6172 35.96C46.3772 35.72 46.2172 35.56 46.1372 35.48C43.0172 32.92 38.8572 31.2 33.6572 30.32C33.2572 30.24 32.9772 30.12 32.8172 29.96C32.7372 29.72 32.7772 29.44 32.9372 29.12C33.4172 28.48 33.8572 27.64 34.2572 26.6L39.4172 14C41.2572 9.36 43.6172 6.04 46.4972 4.03999C49.3772 1.96 53.0572 0.919998 57.5372 0.919998H63.1772C63.4972 0.919998 63.7772 1.04 64.0172 1.27999C64.2572 1.44 64.3772 1.72 64.3772 2.12V14.96C64.3772 15.28 64.2572 15.56 64.0172 15.8C63.7772 15.96 63.4972 16.04 63.1772 16.04H61.2572C59.2572 16.04 57.7372 16.48 56.6972 17.36C55.7372 18.16 54.8972 19.6 54.1772 21.68L50.6972 30.68C49.9772 32.52 49.1772 34.16 48.2972 35.6C48.0572 36 47.7772 36.2 47.4572 36.2ZM1.61719 83C1.29719 83 1.01719 82.88 0.777188 82.64C0.537188 82.4 0.417188 82.12 0.417188 81.8V2.6C0.417188 2.2 0.537188 1.92 0.777188 1.75999C1.01719 1.52 1.29719 1.4 1.61719 1.4H16.8572C17.2572 1.4 17.5372 1.52 17.6972 1.75999C17.9372 1.92 18.0572 2.2 18.0572 2.6V81.8C18.0572 82.12 17.9372 82.4 17.6972 82.64C17.5372 82.88 17.2572 83 16.8572 83H1.61719ZM58.3772 83.48C53.7372 83.48 49.9772 82.48 47.0972 80.48C44.2172 78.4 41.9372 75 40.2572 70.28L35.2172 56.84C34.3372 54.52 33.1772 52.8 31.7372 51.68C30.2972 50.56 28.6972 49.92 26.9372 49.76L23.6972 49.64C22.9772 49.64 22.6172 49.24 22.6172 48.44V35C22.6172 34.2 22.9772 33.8 23.6972 33.8H26.0972C31.8572 33.8 37.0172 35.08 41.5772 37.64C46.1372 40.12 49.4172 44.08 51.4172 49.52L56.2172 62.24C57.0972 64.48 58.0172 66 58.9772 66.8C59.9372 67.6 61.3772 68 63.2972 68H65.0972C65.4172 68 65.6972 68.12 65.9372 68.36C66.1772 68.52 66.2972 68.76 66.2972 69.08V82.28C66.2972 82.68 66.1772 82.96 65.9372 83.12C65.6972 83.36 65.4172 83.48 65.0972 83.48H58.3772ZM68.3625 26.12L68.2425 25.64C68.2425 25.16 68.5625 24.92 69.2025 24.92H84.5625C85.2825 24.92 85.7625 25.32 86.0025 26.12L95.4825 52.4C95.6425 52.64 95.7225 52.92 95.7225 53.24C95.7225 53.56 95.6425 53.84 95.4825 54.08L88.8825 72.68C88.8025 72.92 88.6825 73.12 88.5225 73.28C88.4425 73.36 88.3225 73.4 88.1625 73.4C87.8425 73.4 87.5625 73.16 87.3225 72.68L68.3625 26.12ZM77.6025 104.6C77.2825 104.6 77.0025 104.48 76.7625 104.24C76.5225 104.08 76.4025 103.8 76.4025 103.4V91.64C76.4025 91.32 76.5225 91.04 76.7625 90.8C77.0025 90.56 77.2825 90.44 77.6025 90.44H80.4825C82.5625 90.44 84.2025 89.96 85.4025 89C86.6825 88.12 87.7625 86.52 88.6425 84.2L109.763 26.12C110.003 25.32 110.523 24.92 111.323 24.92H125.843C126.243 24.92 126.523 25.04 126.683 25.28C126.923 25.44 126.963 25.72 126.803 26.12L101.723 89.36C100.123 93.36 98.4425 96.44 96.6825 98.6C94.9225 100.84 92.8425 102.4 90.4425 103.28C88.1225 104.16 85.2025 104.6 81.6825 104.6H77.6025ZM137.315 39.08C136.995 39.08 136.715 38.96 136.475 38.72C136.235 38.48 136.115 38.2 136.115 37.88V26C136.115 25.68 136.195 25.44 136.355 25.28C136.595 25.04 136.875 24.92 137.195 24.92H186.515C186.835 24.92 187.075 25.04 187.235 25.28C187.475 25.44 187.595 25.68 187.595 26V81.92C187.595 82.16 187.475 82.4 187.235 82.64C187.075 82.88 186.835 83 186.515 83H171.995C171.675 83 171.395 82.88 171.155 82.64C170.915 82.4 170.795 82.16 170.795 81.92V39.8C170.795 39.32 170.555 39.08 170.075 39.08H137.315ZM136.115 44.24C136.115 43.84 136.235 43.56 136.475 43.4C136.715 43.16 136.995 43.04 137.315 43.04H151.715C152.115 43.04 152.395 43.16 152.555 43.4C152.795 43.56 152.915 43.84 152.915 44.24V81.92C152.915 82.16 152.795 82.4 152.555 82.64C152.395 82.88 152.155 83 151.835 83H137.195C136.875 83 136.595 82.88 136.355 82.64C136.195 82.4 136.115 82.16 136.115 81.92V44.24ZM209.757 39.08C209.437 39.08 209.157 38.96 208.917 38.72C208.677 38.48 208.557 38.2 208.557 37.88V26C208.557 25.68 208.637 25.44 208.797 25.28C209.037 25.04 209.317 24.92 209.637 24.92H254.997C255.717 24.92 256.077 25.28 256.077 26V81.92C256.077 82.16 255.957 82.4 255.717 82.64C255.557 82.88 255.317 83 254.997 83H240.357C240.037 83 239.757 82.88 239.517 82.64C239.357 82.4 239.277 82.16 239.277 81.92V39.8C239.277 39.32 239.037 39.08 238.557 39.08H209.757ZM196.677 70.88C196.677 70.16 197.037 69.8 197.757 69.8H198.717C201.517 69.8 203.837 68.72 205.677 66.56C207.597 64.4 208.557 60.28 208.557 54.2V44.24C208.557 43.84 208.677 43.56 208.917 43.4C209.157 43.16 209.437 43.04 209.757 43.04H223.197C223.597 43.04 223.877 43.16 224.037 43.4C224.277 43.56 224.397 43.84 224.397 44.24V53.84C224.397 61.2 223.597 67.04 221.997 71.36C220.477 75.68 218.157 78.8 215.037 80.72C211.997 82.56 207.997 83.48 203.037 83.48H197.757C197.437 83.48 197.157 83.36 196.917 83.12C196.757 82.96 196.677 82.72 196.677 82.4V70.88ZM296.075 84.32C289.355 84.32 283.755 82.88 279.275 80C274.795 77.12 271.715 73.04 270.035 67.76C269.475 65.84 269.035 63.8 268.715 61.64C268.395 59.48 268.235 56.92 268.235 53.96C268.235 50.76 268.355 48.08 268.595 45.92C268.915 43.76 269.395 41.8 270.035 40.04C271.555 35.24 274.195 31.44 277.955 28.64C281.715 25.76 286.275 24.12 291.635 23.72H291.875C292.195 23.72 292.435 23.84 292.595 24.08C292.755 24.24 292.835 24.48 292.835 24.8V35.12C292.835 35.76 292.475 36.16 291.755 36.32C290.155 36.72 288.795 37.48 287.675 38.6C286.555 39.64 285.755 40.96 285.275 42.56C284.955 43.6 284.715 44.96 284.555 46.64C284.395 48.24 284.315 50.68 284.315 53.96C284.315 56.52 284.395 58.52 284.555 59.96C284.715 61.32 284.955 62.48 285.275 63.44C286.075 65.92 287.555 67.84 289.715 69.2C291.955 70.48 294.635 71.12 297.755 71.12C302.795 71.12 307.435 69.32 311.675 65.72C312.315 65.24 312.875 65.24 313.355 65.72L320.435 73.04C320.675 73.28 320.795 73.56 320.795 73.88C320.795 74.2 320.675 74.48 320.435 74.72C317.475 77.76 313.915 80.12 309.755 81.8C305.595 83.48 301.035 84.32 296.075 84.32ZM290.195 58.64C289.875 58.64 289.595 58.52 289.355 58.28C289.115 58.04 288.995 57.76 288.995 57.44V49.04C288.995 48.64 289.115 48.36 289.355 48.2C289.595 47.96 289.875 47.84 290.195 47.84H304.955C305.435 47.84 305.675 47.6 305.675 47.12C305.675 45.52 305.475 44 305.075 42.56C303.955 39.12 301.675 37.04 298.235 36.32C297.515 36.08 297.155 35.64 297.155 35V24.8C297.155 24.4 297.275 24.12 297.515 23.96C297.755 23.72 298.075 23.64 298.475 23.72C303.915 24.12 308.475 25.72 312.155 28.52C315.915 31.32 318.595 35.12 320.195 39.92C320.755 41.84 321.195 44.12 321.515 46.76C321.835 49.4 321.995 52.96 321.995 57.44C321.995 57.84 321.875 58.16 321.635 58.4C321.395 58.56 321.075 58.64 320.675 58.64H290.195ZM334.162 26C334.162 25.68 334.242 25.44 334.402 25.28C334.642 25.04 334.922 24.92 335.242 24.92H349.882C350.202 24.92 350.442 25.04 350.602 25.28C350.842 25.44 350.962 25.68 350.962 26V81.92C350.962 82.16 350.842 82.4 350.602 82.64C350.442 82.88 350.202 83 349.882 83H335.242C334.922 83 334.642 82.88 334.402 82.64C334.242 82.4 334.162 82.16 334.162 81.92V26ZM369.442 26C369.442 25.68 369.562 25.44 369.802 25.28C370.042 25.04 370.322 24.92 370.642 24.92H385.162C385.482 24.92 385.722 25.04 385.882 25.28C386.122 25.44 386.242 25.68 386.242 26V81.92C386.242 82.16 386.122 82.4 385.882 82.64C385.722 82.88 385.482 83 385.162 83H370.642C370.322 83 370.042 82.88 369.802 82.64C369.562 82.4 369.442 82.16 369.442 81.92V26ZM356.362 60.56C355.642 60.56 355.282 60.16 355.282 59.36V47.6C355.282 47.2 355.402 46.92 355.642 46.76C355.882 46.52 356.162 46.4 356.482 46.4H363.922C364.322 46.4 364.602 46.52 364.762 46.76C365.002 46.92 365.122 47.2 365.122 47.6V59.36C365.122 59.68 365.002 59.96 364.762 60.2C364.602 60.44 364.322 60.56 363.922 60.56H356.362ZM422.19 84.2C416.75 83.64 412.11 82 408.27 79.28C404.43 76.48 401.75 72.68 400.23 67.88C399.59 65.88 399.11 63.76 398.79 61.52C398.55 59.28 398.43 56.76 398.43 53.96C398.43 51.08 398.55 48.56 398.79 46.4C399.11 44.16 399.59 42 400.23 39.92C401.75 35.12 404.43 31.36 408.27 28.64C412.11 25.84 416.75 24.2 422.19 23.72H422.43C422.75 23.72 422.99 23.84 423.15 24.08C423.31 24.32 423.39 24.6 423.39 24.92V36.8C423.39 37.44 423.07 37.88 422.43 38.12C419.55 38.84 417.55 40.76 416.43 43.88C416.03 45.08 415.75 46.4 415.59 47.84C415.51 49.28 415.47 51.32 415.47 53.96C415.47 56.52 415.55 58.56 415.71 60.08C415.87 61.52 416.11 62.84 416.43 64.04C417.39 66.76 419.15 68.56 421.71 69.44C421.87 69.52 422.07 69.6 422.31 69.68C422.63 69.76 422.87 69.92 423.03 70.16C423.27 70.4 423.39 70.72 423.39 71.12V83C423.39 83.4 423.27 83.72 423.03 83.96C422.79 84.2 422.51 84.28 422.19 84.2ZM428.79 84.2C428.47 84.2 428.19 84.08 427.95 83.84C427.79 83.6 427.71 83.32 427.71 83V71.12C427.71 70.48 428.07 70.04 428.79 69.8C431.75 68.92 433.71 67 434.67 64.04C435.07 62.76 435.35 61.4 435.51 59.96C435.67 58.44 435.75 56.44 435.75 53.96C435.75 51.4 435.67 49.4 435.51 47.96C435.35 46.52 435.07 45.16 434.67 43.88C434.19 42.36 433.43 41.12 432.39 40.16C431.43 39.12 430.23 38.44 428.79 38.12C428.07 37.88 427.71 37.44 427.71 36.8V24.92C427.71 24.52 427.83 24.2 428.07 23.96C428.31 23.72 428.63 23.64 429.03 23.72C434.39 24.2 438.99 25.84 442.83 28.64C446.67 31.36 449.35 35.12 450.87 39.92C451.59 42 452.07 44.16 452.31 46.4C452.63 48.56 452.79 51.08 452.79 53.96C452.79 56.84 452.63 59.4 452.31 61.64C452.07 63.8 451.59 65.88 450.87 67.88C449.35 72.68 446.67 76.48 442.83 79.28C438.99 82 434.39 83.64 429.03 84.2H428.79Z" fill="#C43C35"/>
</svg>
