<svg width="106" height="106" viewBox="0 0 106 106" fill="none" xmlns="http://www.w3.org/2000/svg">
<path d="M26.2654 32.9865L34.0637 25.1965C35.0157 24.2447 36.2897 23.7102 37.6371 23.7102C38.9844 23.7102 40.2585 24.2373 41.2104 25.1965L49.6092 33.5795C50.5611 34.5313 51.0956 35.8126 51.0956 37.1597C51.0956 38.5142 50.5684 39.7808 49.6092 40.7399L43.0483 47.3072C44.5429 50.7892 46.6904 53.9529 49.3749 56.6275C52.0622 59.3291 55.2035 61.4596 58.689 62.9678L65.2498 56.4005C66.2017 55.4487 67.4758 54.9142 68.8232 54.9142C69.4877 54.9118 70.1461 55.042 70.7597 55.2972C71.3733 55.5524 71.9298 55.9275 72.3965 56.4005L80.8026 64.7836C81.7545 65.7353 82.2891 67.0166 82.2891 68.3637C82.2891 69.7182 81.7618 70.9848 80.8026 71.9439L73.0116 79.734C71.386 81.3593 69.1454 82.2891 66.8461 82.2891C66.3702 82.2891 65.9089 82.2525 65.4402 82.172C55.7454 80.5759 46.1237 75.4143 38.3547 67.6536C30.5929 59.8782 25.438 50.2578 23.827 40.5569C23.3657 37.804 24.2883 34.9706 26.2654 32.9865ZM29.0186 39.6856C30.4465 48.3176 35.0889 56.9276 42.0818 63.9196C49.0747 70.9116 57.6785 75.5534 66.3116 76.9811C67.3953 77.1641 68.5083 76.7981 69.2991 76.0147L76.951 68.3637L68.8378 60.2443L60.0656 69.03L59.9997 69.0959L58.418 68.5102C53.6224 66.7472 49.2675 63.9627 45.6552 60.3495C42.0428 56.7364 39.2595 52.3811 37.4979 47.5855L36.9122 46.004L45.7576 37.167L37.6444 29.0475L29.9925 36.6985C29.2017 37.4892 28.8355 38.602 29.0186 39.6856Z" fill="#EFCF46"/>
<path d="M53 0C23.7317 0 0 23.7317 0 53C0 82.2683 23.7317 106 53 106C82.2683 106 106 82.2683 106 53C106 23.7317 82.2683 0 53 0ZM53 97.0089C28.7005 97.0089 8.99107 77.2996 8.99107 53C8.99107 28.7005 28.7005 8.99107 53 8.99107C77.2996 8.99107 97.0089 28.7005 97.0089 53C97.0089 77.2996 77.2996 97.0089 53 97.0089Z" fill="#EFCF46"/>
</svg>
