<svg width="25" height="25" viewBox="0 0 25 25" fill="none" xmlns="http://www.w3.org/2000/svg">
<path d="M22.1164 25H21.953C3.06572 23.9135 0.384017 7.97116 0.00915511 3.10577C-0.0210499 2.72748 0.0236581 2.34695 0.140717 1.98597C0.257776 1.625 0.444885 1.29068 0.691325 1.00217C0.937764 0.713654 1.23869 0.476623 1.57686 0.304653C1.91503 0.132684 2.28379 0.0291556 2.66202 9.0153e-07H7.95815C8.34316 -0.000371948 8.71941 0.114914 9.03817 0.330926C9.35693 0.546937 9.6035 0.853721 9.74595 1.21154L11.207 4.80769C11.3476 5.15726 11.3825 5.54046 11.3073 5.9097C11.2322 6.27895 11.0502 6.61795 10.784 6.88462L8.73671 8.95192C9.05651 10.77 9.92683 12.4458 11.2299 13.7528C12.533 15.0599 14.206 15.9349 16.0225 16.2596L18.1083 14.1923C18.3788 13.929 18.7209 13.7512 19.0918 13.6811C19.4627 13.611 19.8461 13.6517 20.194 13.7981L23.8177 15.25C24.17 15.397 24.4706 15.6456 24.6811 15.9641C24.8917 16.2826 25.0027 16.6566 25 17.0385V22.1154C25 22.8804 24.6961 23.6141 24.1554 24.1551C23.6146 24.6961 22.8812 25 22.1164 25ZM2.89271 1.92308C2.63779 1.92308 2.39331 2.02438 2.21305 2.20471C2.03279 2.38503 1.93152 2.6296 1.93152 2.88462V2.96154C2.37367 8.65385 5.20916 22.1154 22.0587 23.0769C22.185 23.0847 22.3116 23.0675 22.4312 23.0263C22.5508 22.9851 22.6611 22.9206 22.7558 22.8366C22.8504 22.7527 22.9276 22.6508 22.9828 22.5369C23.038 22.4231 23.0702 22.2994 23.0776 22.1731V17.0385L19.4539 15.5865L16.6953 18.3269L16.2339 18.2692C7.87164 17.2212 6.73745 8.85577 6.73745 8.76923L6.67977 8.30769L9.40954 5.54808L7.96776 1.92308H2.89271Z" fill="#EFCF46"/>
</svg>
