<svg width="19" height="25" viewBox="0 0 19 25" fill="none" xmlns="http://www.w3.org/2000/svg">
<path d="M9.17614 5.625C8.47379 5.625 7.78721 5.82494 7.20323 6.19954C6.61925 6.57413 6.16409 7.10656 5.89532 7.72949C5.62654 8.35242 5.55621 9.03787 5.69324 9.69917C5.83026 10.3605 6.16847 10.9679 6.6651 11.4447C7.16174 11.9215 7.79449 12.2461 8.48334 12.3777C9.1722 12.5092 9.88621 12.4417 10.5351 12.1837C11.184 11.9257 11.7386 11.4887 12.1288 10.9281C12.519 10.3675 12.7273 9.70834 12.7273 9.03409C12.7262 8.13026 12.3517 7.26374 11.686 6.62464C11.0203 5.98553 10.1176 5.62603 9.17614 5.625ZM9.17614 10.7386C8.82496 10.7386 8.48167 10.6387 8.18968 10.4514C7.89769 10.2641 7.67011 9.99786 7.53573 9.68639C7.40134 9.37493 7.36617 9.0322 7.43469 8.70155C7.5032 8.3709 7.6723 8.06718 7.92062 7.82879C8.16894 7.59041 8.48531 7.42807 8.82974 7.3623C9.17417 7.29653 9.53117 7.33028 9.85562 7.4593C10.1801 7.58831 10.4574 7.80678 10.6525 8.0871C10.8476 8.36741 10.9517 8.69696 10.9517 9.03409C10.9512 9.486 10.7639 9.91926 10.4311 10.2388C10.0982 10.5584 9.64688 10.7381 9.17614 10.7386Z" fill="#EFCF46"/>
<path d="M15.8242 2.72094C14.2035 1.09668 12.04 0.131811 9.75138 0.0125409C7.46272 -0.106729 5.21112 0.628058 3.43112 2.07509C1.65113 3.52212 0.468935 5.57881 0.112703 7.84821C-0.243529 10.1176 0.251454 12.4389 1.50212 14.3639L7.94649 24.2813C8.0899 24.5019 8.28598 24.6833 8.51697 24.8088C8.74795 24.9343 9.00653 25 9.26927 25C9.532 25 9.79058 24.9343 10.0216 24.8088C10.2525 24.6833 10.4486 24.5019 10.592 24.2813L17.0366 14.3639C18.1971 12.5782 18.7099 10.4468 18.4892 8.32701C18.2685 6.20725 17.3276 4.22798 15.8242 2.72094ZM15.6075 13.4307L9.26929 23.1843L2.93099 13.4307C0.990867 10.4451 1.40698 6.44956 3.92041 3.9299C4.62282 3.22575 5.45672 2.66718 6.37449 2.2861C7.29225 1.90501 8.27591 1.70887 9.26929 1.70887C10.2627 1.70887 11.2463 1.90501 12.1641 2.2861C13.0819 2.66718 13.9158 3.22575 14.6182 3.9299C17.1316 6.44956 17.5477 10.4451 15.6075 13.4307Z" fill="#EFCF46"/>
</svg>
