<svg width="106" height="106" viewBox="0 0 106 106" fill="none" xmlns="http://www.w3.org/2000/svg">
<path d="M53 0C23.7317 0 0 23.7317 0 53C0 82.2683 23.7317 106 53 106C82.2683 106 106 82.2683 106 53C106 23.7317 82.2683 0 53 0ZM53 97.0089C28.7004 97.0089 8.99107 77.2996 8.99107 53C8.99107 28.7004 28.7004 8.99107 53 8.99107C77.2996 8.99107 97.0089 28.7004 97.0089 53C97.0089 77.2996 77.2996 97.0089 53 97.0089ZM58.6431 50.2554L55.6382 49.5574V33.6692C60.1337 34.2844 62.9138 37.1 63.3871 40.5545C63.4462 41.0277 63.8484 41.3708 64.3217 41.3708H69.6335C70.1895 41.3708 70.6272 40.8857 70.5799 40.3297C69.8583 32.9594 63.7893 28.2272 55.6855 27.4109V23.5424C55.6855 23.0219 55.2596 22.596 54.7391 22.596H51.4147C50.8942 22.596 50.4683 23.0219 50.4683 23.5424V27.4464C42.0924 28.2627 35.5384 32.8884 35.5384 41.5246C35.5384 49.5219 41.4299 53.3786 47.6172 54.8574L50.5393 55.6027V72.4846C45.3103 71.7866 42.3763 68.9946 41.773 65.2326C41.702 64.783 41.2998 64.4518 40.8384 64.4518H35.3728C34.8167 64.4518 34.379 64.925 34.4263 65.481C34.9587 71.9877 39.892 77.9739 50.421 78.7429V82.4576C50.421 82.9781 50.8469 83.404 51.3674 83.404H54.7272C55.2478 83.404 55.6737 82.9781 55.6737 82.4458L55.65 78.6955C64.9132 77.8792 71.5382 72.9223 71.5382 64.0259C71.5263 55.8156 66.3092 52.1482 58.6431 50.2554ZM50.5275 48.3388C49.865 48.1496 49.3089 47.9721 48.7529 47.7473C44.7542 46.304 42.8969 43.9734 42.8969 40.9685C42.8969 36.6741 46.1502 34.2252 50.5275 33.6692V48.3388ZM55.6382 72.5201V56.7029C56.0049 56.8094 56.3362 56.8922 56.6792 56.9632C62.275 58.6667 64.156 61.0328 64.156 64.6647C64.156 69.2904 60.6779 72.0705 55.6382 72.5201Z" fill="#EFCF46"/>
</svg>
