<svg width="40" height="40" viewBox="0 0 40 40" fill="none" xmlns="http://www.w3.org/2000/svg">
<path d="M35.0016 40H34.743C4.85184 38.2615 0.607749 12.7538 0.014489 4.96923C-0.0333137 4.36397 0.0374415 3.75512 0.2227 3.17756C0.407959 2.6 0.70408 2.06508 1.0941 1.60346C1.48411 1.14185 1.96036 0.762597 2.49555 0.487445C3.03074 0.212294 3.61435 0.0466489 4.21294 1.44245e-06H12.5946C13.204 -0.000595117 13.7994 0.183863 14.3039 0.529481C14.8084 0.8751 15.1986 1.36595 15.424 1.93846L17.7362 7.69231C17.9588 8.25161 18.0141 8.86474 17.8951 9.45553C17.7761 10.0463 17.4881 10.5887 17.0669 11.0154L13.8268 14.3231C14.3329 17.2319 15.7103 19.9133 17.7726 22.0046C19.8349 24.0958 22.4825 25.4958 25.3573 26.0154L28.6583 22.7077C29.0865 22.2864 29.6279 22.0019 30.2149 21.8898C30.8019 21.7776 31.4086 21.8427 31.9592 22.0769L37.6941 24.4C38.2516 24.6352 38.7273 25.033 39.0605 25.5426C39.3937 26.0522 39.5694 26.6506 39.5651 27.2615V35.3846C39.5651 36.6087 39.0843 37.7826 38.2285 38.6482C37.3727 39.5137 36.2119 40 35.0016 40ZM4.57803 3.07692C4.17458 3.07692 3.78767 3.23901 3.50239 3.52753C3.21711 3.81605 3.05685 4.20736 3.05685 4.61539V4.73846C3.75659 13.8462 8.24407 35.3846 34.9103 36.9231C35.1102 36.9356 35.3105 36.908 35.4998 36.8421C35.6891 36.7761 35.8636 36.673 36.0135 36.5386C36.1633 36.4042 36.2854 36.2413 36.3728 36.0591C36.4602 35.8769 36.5112 35.6791 36.5228 35.4769V27.2615L30.7879 24.9385L26.4222 29.3231L25.692 29.2308C12.4577 27.5538 10.6627 14.1692 10.6627 14.0308L10.5715 13.2923L14.8916 8.87693L12.6098 3.07692H4.57803Z" fill="#EFCF46"/>
</svg>
