<svg width="459" height="104" viewBox="0 0 459 104" fill="none" xmlns="http://www.w3.org/2000/svg">
<path d="M1.51172 16.24C1.19172 16.24 0.911719 16.12 0.671719 15.88C0.431719 15.64 0.311719 15.36 0.311719 15.04V1.48C0.311719 0.759999 0.711719 0.399999 1.51172 0.399999H61.6317C62.4317 0.399999 62.8317 0.759999 62.8317 1.48V80.8C62.8317 81.12 62.7117 81.4 62.4717 81.64C62.3117 81.88 62.0717 82 61.7517 82H46.2717C45.9517 82 45.6717 81.88 45.4317 81.64C45.1917 81.4 45.0717 81.12 45.0717 80.8V16.84C45.0717 16.44 44.8717 16.24 44.4717 16.24H1.51172ZM0.311719 21.64C0.311719 21.24 0.431719 20.96 0.671719 20.8C0.911719 20.56 1.19172 20.44 1.51172 20.44H16.7517C17.1517 20.44 17.4317 20.56 17.5917 20.8C17.8317 20.96 17.9517 21.24 17.9517 21.64V80.8C17.9517 81.12 17.8317 81.4 17.5917 81.64C17.4317 81.88 17.1917 82 16.8717 82H1.51172C1.19172 82 0.911719 81.88 0.671719 81.64C0.431719 81.4 0.311719 81.12 0.311719 80.8V21.64ZM110.519 83.32C106.839 83.32 103.519 82.72 100.559 81.52C100.079 81.28 99.7186 81 99.4786 80.68C99.3186 80.2 99.2386 79.88 99.2386 79.72V68.44C99.2386 68.04 99.3186 67.76 99.4786 67.6C99.7186 67.44 100.079 67.36 100.559 67.36C100.799 67.36 101.319 67.6 102.119 68.08C102.999 68.48 104.119 68.68 105.479 68.68C109.799 68.68 112.559 66.64 113.759 62.56C114.559 60.24 114.959 57.04 114.959 52.96C114.959 48.96 114.559 45.76 113.759 43.36C112.479 39.28 109.719 37.24 105.479 37.24C104.119 37.24 102.999 37.48 102.119 37.96C101.319 38.36 100.799 38.56 100.559 38.56C100.079 38.56 99.7186 38.48 99.4786 38.32C99.3186 38.16 99.2386 37.92 99.2386 37.6V26.2C99.2386 26.04 99.3186 25.72 99.4786 25.24C99.7186 24.92 100.079 24.64 100.559 24.4C103.359 23.2 106.679 22.6 110.519 22.6C120.439 22.6 126.919 27.24 129.959 36.52C131.319 40.92 131.999 46.4 131.999 52.96C131.999 59.6 131.319 65.08 129.959 69.4C126.919 78.68 120.439 83.32 110.519 83.32ZM79.3186 103.6C78.9986 103.6 78.7186 103.48 78.4786 103.24C78.2386 103.08 78.1186 102.8 78.1186 102.4V25.12C78.1186 24.72 78.2386 24.44 78.4786 24.28C78.7186 24.04 78.9986 23.92 79.3186 23.92H93.7186C94.1186 23.92 94.3986 24.04 94.5586 24.28C94.7986 24.44 94.9186 24.72 94.9186 25.12V102.4C94.9186 102.8 94.7986 103.08 94.5586 103.24C94.3986 103.48 94.1186 103.6 93.7186 103.6H79.3186ZM164.975 83.2C159.535 82.64 154.895 81 151.055 78.28C147.215 75.48 144.535 71.68 143.015 66.88C142.375 64.88 141.895 62.76 141.575 60.52C141.335 58.28 141.215 55.76 141.215 52.96C141.215 50.08 141.335 47.56 141.575 45.4C141.895 43.16 142.375 41 143.015 38.92C144.535 34.12 147.215 30.36 151.055 27.64C154.895 24.84 159.535 23.2 164.975 22.72H165.215C165.535 22.72 165.775 22.84 165.935 23.08C166.095 23.32 166.175 23.6 166.175 23.92V35.8C166.175 36.44 165.855 36.88 165.215 37.12C162.335 37.84 160.335 39.76 159.215 42.88C158.815 44.08 158.535 45.4 158.375 46.84C158.295 48.28 158.255 50.32 158.255 52.96C158.255 55.52 158.335 57.56 158.495 59.08C158.655 60.52 158.895 61.84 159.215 63.04C160.175 65.76 161.935 67.56 164.495 68.44C164.655 68.52 164.855 68.6 165.095 68.68C165.415 68.76 165.655 68.92 165.815 69.16C166.055 69.4 166.175 69.72 166.175 70.12V82C166.175 82.4 166.055 82.72 165.815 82.96C165.575 83.2 165.295 83.28 164.975 83.2ZM171.575 83.2C171.255 83.2 170.975 83.08 170.735 82.84C170.575 82.6 170.495 82.32 170.495 82V70.12C170.495 69.48 170.855 69.04 171.575 68.8C174.535 67.92 176.495 66 177.455 63.04C177.855 61.76 178.135 60.4 178.295 58.96C178.455 57.44 178.535 55.44 178.535 52.96C178.535 50.4 178.455 48.4 178.295 46.96C178.135 45.52 177.855 44.16 177.455 42.88C176.975 41.36 176.215 40.12 175.175 39.16C174.215 38.12 173.015 37.44 171.575 37.12C170.855 36.88 170.495 36.44 170.495 35.8V23.92C170.495 23.52 170.615 23.2 170.855 22.96C171.095 22.72 171.415 22.64 171.815 22.72C177.175 23.2 181.775 24.84 185.615 27.64C189.455 30.36 192.135 34.12 193.655 38.92C194.375 41 194.855 43.16 195.095 45.4C195.415 47.56 195.575 50.08 195.575 52.96C195.575 55.84 195.415 58.4 195.095 60.64C194.855 62.8 194.375 64.88 193.655 66.88C192.135 71.68 189.455 75.48 185.615 78.28C181.775 81 177.175 82.64 171.815 83.2H171.575ZM202.208 94.36C201.888 94.36 201.648 94.24 201.488 94C201.328 93.84 201.248 93.6 201.248 93.28V68.92C201.248 68.6 201.328 68.36 201.488 68.2C201.728 67.96 202.008 67.84 202.328 67.84H243.008C243.408 67.84 243.608 67.6 243.608 67.12V25.12C243.608 24.72 243.728 24.44 243.968 24.28C244.208 24.04 244.488 23.92 244.808 23.92H259.448C259.768 23.92 260.008 24.04 260.168 24.28C260.328 24.44 260.408 24.68 260.408 25V67.12C260.408 67.6 260.648 67.84 261.128 67.84H266.528C266.848 67.84 267.088 67.96 267.248 68.2C267.488 68.36 267.608 68.6 267.608 68.92V93.28C267.608 93.6 267.528 93.84 267.368 94C267.208 94.24 266.968 94.36 266.648 94.36H253.328C253.088 94.36 252.848 94.24 252.608 94C252.448 93.84 252.368 93.6 252.368 93.28V82.72C252.368 82.24 252.128 82 251.648 82H217.208C216.728 82 216.488 82.24 216.488 82.72V93.28C216.488 93.6 216.368 93.84 216.128 94C215.968 94.24 215.768 94.36 215.528 94.36H202.208ZM210.128 63.76C209.728 63.76 209.408 63.64 209.168 63.4C209.008 63.16 209.008 62.84 209.168 62.44C210.528 58.12 211.488 53.76 212.048 49.36C212.688 44.96 213.008 38.92 213.008 31.24V25C213.008 24.68 213.088 24.44 213.248 24.28C213.488 24.04 213.768 23.92 214.088 23.92H238.088C238.488 23.92 238.768 24.04 238.928 24.28C239.168 24.44 239.288 24.72 239.288 25.12V36.52C239.288 36.84 239.168 37.12 238.928 37.36C238.768 37.6 238.488 37.72 238.088 37.72H229.568C229.088 37.72 228.848 37.96 228.848 38.44V42.88C228.848 50.24 227.848 56.84 225.848 62.68C225.608 63.4 225.128 63.76 224.408 63.76H210.128ZM310.829 82C310.509 82 310.229 81.88 309.989 81.64C309.749 81.4 309.629 81.12 309.629 80.8V43.6C309.629 41.68 309.269 40.2 308.549 39.16C307.829 38.04 306.589 37.2 304.829 36.64C303.149 36.08 300.709 35.8 297.509 35.8C294.869 35.8 292.429 36.12 290.189 36.76C287.949 37.4 286.029 38.28 284.429 39.4C284.189 39.64 283.909 39.76 283.589 39.76C283.269 39.76 282.989 39.56 282.749 39.16L277.589 30.04C277.429 29.56 277.349 29.28 277.349 29.2C277.349 28.8 277.549 28.48 277.949 28.24C280.429 26.4 283.549 25 287.309 24.04C291.069 23 295.189 22.48 299.669 22.48C305.989 22.48 311.029 23.24 314.789 24.76C318.549 26.2 321.269 28.44 322.949 31.48C324.709 34.52 325.589 38.56 325.589 43.6V80.8C325.589 81.12 325.469 81.4 325.229 81.64C325.069 81.88 324.789 82 324.389 82H310.829ZM293.309 83.32C289.709 83.32 286.469 82.68 283.589 81.4C280.789 80.12 278.549 78.16 276.869 75.52C275.189 72.88 274.349 69.6 274.349 65.68C274.349 59.52 276.509 54.88 280.829 51.76C285.149 48.56 290.989 46.96 298.349 46.96H304.109C304.509 46.96 304.789 47.08 304.949 47.32C305.189 47.48 305.309 47.76 305.309 48.16V56.44C305.309 56.76 305.189 57.04 304.949 57.28C304.789 57.52 304.509 57.64 304.109 57.64H300.269C296.829 57.64 294.269 58.2 292.589 59.32C290.909 60.44 290.069 62.16 290.069 64.48C290.069 66.56 290.789 68.2 292.229 69.4C293.749 70.52 295.949 71.08 298.829 71.08C300.349 71.08 301.589 70.92 302.549 70.6C303.589 70.28 304.189 70.12 304.349 70.12C304.589 70.12 304.789 70.24 304.949 70.48C305.189 70.64 305.309 70.88 305.309 71.2V79.72C305.309 80.36 304.989 80.84 304.349 81.16C301.309 82.6 297.629 83.32 293.309 83.32ZM340.267 25C340.267 24.68 340.347 24.44 340.507 24.28C340.747 24.04 341.027 23.92 341.347 23.92H355.987C356.307 23.92 356.547 24.04 356.707 24.28C356.947 24.44 357.067 24.68 357.067 25V80.92C357.067 81.16 356.947 81.4 356.707 81.64C356.547 81.88 356.307 82 355.987 82H341.347C341.027 82 340.747 81.88 340.507 81.64C340.347 81.4 340.267 81.16 340.267 80.92V25ZM375.547 25C375.547 24.68 375.667 24.44 375.907 24.28C376.147 24.04 376.427 23.92 376.747 23.92H391.267C391.587 23.92 391.827 24.04 391.987 24.28C392.227 24.44 392.347 24.68 392.347 25V80.92C392.347 81.16 392.227 81.4 391.987 81.64C391.827 81.88 391.587 82 391.267 82H376.747C376.427 82 376.147 81.88 375.907 81.64C375.667 81.4 375.547 81.16 375.547 80.92V25ZM362.467 59.56C361.747 59.56 361.387 59.16 361.387 58.36V46.6C361.387 46.2 361.507 45.92 361.747 45.76C361.987 45.52 362.267 45.4 362.587 45.4H370.027C370.427 45.4 370.707 45.52 370.867 45.76C371.107 45.92 371.227 46.2 371.227 46.6V58.36C371.227 58.68 371.107 58.96 370.867 59.2C370.707 59.44 370.427 59.56 370.027 59.56H362.467ZM428.295 83.2C422.855 82.64 418.215 81 414.375 78.28C410.535 75.48 407.855 71.68 406.335 66.88C405.695 64.88 405.215 62.76 404.895 60.52C404.655 58.28 404.535 55.76 404.535 52.96C404.535 50.08 404.655 47.56 404.895 45.4C405.215 43.16 405.695 41 406.335 38.92C407.855 34.12 410.535 30.36 414.375 27.64C418.215 24.84 422.855 23.2 428.295 22.72H428.535C428.855 22.72 429.095 22.84 429.255 23.08C429.415 23.32 429.495 23.6 429.495 23.92V35.8C429.495 36.44 429.175 36.88 428.535 37.12C425.655 37.84 423.655 39.76 422.535 42.88C422.135 44.08 421.855 45.4 421.695 46.84C421.615 48.28 421.575 50.32 421.575 52.96C421.575 55.52 421.655 57.56 421.815 59.08C421.975 60.52 422.215 61.84 422.535 63.04C423.495 65.76 425.255 67.56 427.815 68.44C427.975 68.52 428.175 68.6 428.415 68.68C428.735 68.76 428.975 68.92 429.135 69.16C429.375 69.4 429.495 69.72 429.495 70.12V82C429.495 82.4 429.375 82.72 429.135 82.96C428.895 83.2 428.615 83.28 428.295 83.2ZM434.895 83.2C434.575 83.2 434.295 83.08 434.055 82.84C433.895 82.6 433.815 82.32 433.815 82V70.12C433.815 69.48 434.175 69.04 434.895 68.8C437.855 67.92 439.815 66 440.775 63.04C441.175 61.76 441.455 60.4 441.615 58.96C441.775 57.44 441.855 55.44 441.855 52.96C441.855 50.4 441.775 48.4 441.615 46.96C441.455 45.52 441.175 44.16 440.775 42.88C440.295 41.36 439.535 40.12 438.495 39.16C437.535 38.12 436.335 37.44 434.895 37.12C434.175 36.88 433.815 36.44 433.815 35.8V23.92C433.815 23.52 433.935 23.2 434.175 22.96C434.415 22.72 434.735 22.64 435.135 22.72C440.495 23.2 445.095 24.84 448.935 27.64C452.775 30.36 455.455 34.12 456.975 38.92C457.695 41 458.175 43.16 458.415 45.4C458.735 47.56 458.895 50.08 458.895 52.96C458.895 55.84 458.735 58.4 458.415 60.64C458.175 62.8 457.695 64.88 456.975 66.88C455.455 71.68 452.775 75.48 448.935 78.28C445.095 81 440.495 82.64 435.135 83.2H434.895Z" fill="#C43C35"/>
</svg>
